<svg xmlns="http://www.w3.org/2000/svg" viewBox="0 0 512 512" role="img" aria-label="Fluent Feathers Academy">
  <defs>
    <linearGradient id="bg" x1="0%" y1="0%" x2="100%" y2="100%">
      <stop offset="0%" stop-color="#c76bb0"/>
      <stop offset="100%" stop-color="#8b4789"/>
    </linearGradient>
    <linearGradient id="feather" x1="0%" y1="0%" x2="100%" y2="100%">
      <stop offset="0%" stop-color="#ffffff"/>
      <stop offset="100%" stop-color="#fde7f6"/>
    </linearGradient>
  </defs>
  <rect width="512" height="512" rx="116" fill="url(#bg)"/>
  <path d="M366 120c-82 10-172 70-218 156-31 58-38 115-20 160 4 10 16 15 26 11 10-4 15-16 11-26-13-32-8-75 16-120 36-68 106-116 174-132-10 11-21 24-32 40-29 42-54 95-61 144-2 12 6 23 18 25 12 2 23-6 25-18 6-41 28-89 53-125 21-30 44-53 60-66 8-6 11-16 8-25-3-10-12-17-22-16-4 0-25 2-38 4z" fill="url(#feather)"/>
  <path d="M157 381c74-11 132-48 172-110" fill="none" stroke="#ffffff" stroke-linecap="round" stroke-width="28"/>
  <text x="96" y="448" font-family="Segoe UI, Arial, sans-serif" font-size="86" font-weight="700" letter-spacing="4" fill="#ffffff">FF</text>
</svg>
